<?xml version="1.0" encoding="UTF-8" standalone="no"?>
<!DOCTYPE svg PUBLIC "-//W3C//DTD SVG 1.1//EN" "http://www.w3.org/Graphics/SVG/1.1/DTD/svg11.dtd">
<svg xmlns="http://www.w3.org/2000/svg" version="1.1" viewBox="0.00 0.00 512.00 512.00">
<g stroke-width="2.00" fill="none" stroke-linecap="butt">
<path stroke="#9d9d9e" vector-effect="non-scaling-stroke" d="
  M 297.47 130.41
  C 300.73 116.38 324.86 110.84 336.96 111.47
  Q 337.53 111.50 337.23 111.01
  Q 326.88 93.95 306.05 97.30
  C 290.22 99.85 277.73 111.04 285.88 128.12
  C 287.82 132.21 284.36 135.06 280.59 132.44
  C 269.69 124.85 268.87 113.94 276.21 103.25
  Q 276.47 102.86 276.05 102.65
  C 265.83 97.35 244.56 93.03 237.37 104.97
  Q 237.11 105.40 237.34 105.84
  Q 245.62 121.68 231.91 131.89
  C 229.75 133.50 226.42 134.76 225.44 131.09
  Q 225.14 129.93 225.96 128.16
  C 234.80 109.09 219.07 98.51 202.53 96.85
  C 190.35 95.63 180.53 100.67 174.54 111.21
  A 0.20 0.20 0.0 0 0 174.73 111.51
  C 188.25 110.70 208.14 115.83 214.43 129.53
  A 1.24 1.24 0.0 0 1 213.62 131.25
  C 203.47 133.84 195.85 127.24 186.29 125.68
  C 169.89 122.99 154.87 130.24 142.05 139.80
  C 135.52 144.67 129.79 152.13 130.08 160.80
  C 130.22 164.78 132.27 169.93 133.47 174.25
  Q 133.60 174.71 134.09 174.68
  C 150.43 173.66 169.43 179.83 182.49 182.53
  C 188.81 183.84 197.79 185.48 203.28 182.09
  C 217.98 173.01 204.43 157.78 193.56 154.66
  C 181.60 151.24 166.99 152.17 154.07 152.52
  C 148.50 152.68 149.08 145.99 152.49 143.46
  Q 154.73 141.79 162.32 140.42
  C 185.23 136.29 229.94 143.41 221.23 178.03
  C 213.57 208.51 172.24 195.33 152.01 190.01
  C 141.54 187.25 129.77 187.75 121.20 194.63
  C 109.63 203.92 105.96 220.82 119.05 230.98
  C 136.77 244.73 159.00 236.47 179.41 241.16
  C 196.42 245.07 211.98 258.24 207.34 277.58
  C 204.11 291.08 190.87 306.05 175.57 300.43
  C 173.44 299.65 161.81 292.96 166.95 289.34
  Q 167.88 288.68 170.16 288.83
  C 195.16 290.43 199.91 260.34 176.45 254.99
  Q 169.51 253.41 165.50 253.65
  Q 151.37 254.50 137.22 253.68
  Q 136.73 253.65 136.35 253.95
  C 128.35 260.21 128.53 271.38 135.32 278.44
  C 137.17 280.37 140.93 282.09 141.73 284.89
  C 142.73 288.40 139.91 293.20 135.83 291.40
  Q 129.00 288.37 125.00 282.67
  A 0.97 0.96 -34.3 0 0 123.67 282.42
  C 112.43 289.90 102.81 304.07 108.19 317.57
  C 113.90 331.92 135.34 340.24 149.25 334.48
  C 154.37 332.36 159.62 326.84 164.55 323.05
  C 168.69 319.87 170.39 324.78 170.36 328.14
  C 170.31 334.70 165.47 340.41 159.98 343.74
  C 146.59 351.86 131.26 351.23 117.64 344.30
  Q 116.95 343.95 116.76 344.71
  C 111.92 364.46 131.10 367.27 145.25 368.32
  Q 161.08 369.49 176.93 370.06
  Q 188.35 370.48 196.99 373.24
  C 204.14 375.54 214.77 383.70 214.90 392.10
  C 215.07 404.01 190.46 404.63 194.24 396.78
  A 0.68 0.67 84.2 0 1 194.44 396.53
  L 198.82 393.15
  A 2.46 2.46 0.0 0 0 199.31 389.76
  C 193.55 381.83 158.68 381.66 149.03 380.93
  Q 148.64 380.90 148.87 381.23
  C 160.10 397.44 180.30 417.72 201.81 414.95
  C 218.82 412.75 236.12 397.63 233.69 379.08
  C 231.83 364.91 221.23 347.99 206.07 344.16
  C 199.38 342.47 190.44 343.45 182.84 342.95
  C 179.10 342.70 175.43 340.36 178.27 336.31
  C 190.45 318.94 214.77 330.44 226.62 340.95
  Q 227.00 341.29 227.49 341.15
  C 231.10 340.10 236.03 339.65 237.33 335.42
  C 240.94 323.65 233.71 306.11 222.08 301.17
  C 218.22 299.53 203.53 294.94 213.83 288.58
  C 223.57 282.56 233.65 277.45 237.06 265.52
  Q 239.18 258.08 238.70 248.99
  C 238.16 238.57 233.83 231.59 224.28 227.68
  Q 213.23 223.16 201.25 222.63
  Q 185.66 221.93 170.07 221.27
  C 162.31 220.94 152.79 219.68 145.62 215.39
  C 136.71 210.07 143.51 198.30 149.10 206.36
  A 1.73 1.69 83.9 0 0 149.79 206.93
  C 155.29 209.33 163.02 209.71 168.25 209.76
  Q 188.48 209.97 204.52 211.06
  C 210.47 211.46 218.17 207.29 221.97 202.89
  C 231.66 191.66 238.49 165.09 227.00 152.67
  C 225.10 150.62 213.00 144.45 217.40 141.00
  C 221.52 137.76 226.43 138.12 230.81 140.97
  C 242.74 148.72 245.30 163.49 243.95 177.24
  Q 241.68 200.40 224.65 214.76
  Q 224.24 215.10 224.76 215.26
  C 239.29 219.69 248.77 229.85 250.21 245.25
  C 251.81 262.24 247.70 281.53 234.35 293.12
  Q 233.97 293.45 234.36 293.78
  Q 246.05 303.90 250.32 318.86
  C 254.04 331.94 251.54 346.84 237.65 352.44
  Q 237.10 352.66 237.41 353.16
  C 246.28 367.67 249.30 386.38 241.59 401.91
  Q 241.31 402.47 241.64 403.01
  C 247.96 413.49 264.61 418.12 271.51 405.24
  Q 271.75 404.78 271.50 404.33
  C 262.40 388.04 264.92 368.61 274.48 353.13
  Q 274.77 352.66 274.26 352.45
  Q 262.98 347.85 260.80 337.00
  C 257.55 320.78 265.38 304.16 277.60 293.77
  A 0.51 0.51 0.0 0 0 277.59 292.98
  C 262.55 281.07 257.83 253.65 263.47 236.27
  C 266.93 225.61 276.85 218.22 287.30 215.26
  A 0.34 0.33 55.8 0 0 287.41 214.67
  C 272.67 203.44 266.30 184.26 267.72 166.20
  C 268.50 156.35 272.51 145.93 281.43 140.70
  Q 288.97 136.27 295.14 141.58
  A 1.22 1.20 -69.6 0 1 295.55 142.49
  C 295.50 145.63 290.81 148.11 288.51 149.71
  C 284.33 152.63 281.25 155.89 280.21 160.50
  C 276.28 177.82 282.04 204.12 301.65 210.29
  Q 304.63 211.22 308.95 210.95
  Q 325.95 209.87 345.44 209.68
  Q 352.84 209.61 360.55 207.59
  C 363.07 206.93 363.81 204.33 366.22 203.84
  Q 369.62 203.16 370.49 206.75
  C 373.47 219.11 346.67 221.14 339.35 221.49
  C 324.98 222.17 309.64 221.64 295.58 224.88
  C 274.40 229.76 270.98 243.23 274.23 262.75
  C 276.55 276.69 286.74 281.47 298.42 288.82
  C 301.86 290.99 302.91 295.47 298.27 297.29
  C 285.52 302.30 278.21 307.95 274.51 321.50
  Q 272.40 329.21 274.73 335.90
  C 276.09 339.79 281.15 340.09 284.41 341.23
  Q 284.90 341.39 285.28 341.05
  C 298.03 329.41 318.68 320.47 332.68 335.00
  C 334.56 336.95 335.61 341.74 332.00 342.55
  C 325.74 343.96 316.56 342.76 311.67 343.21
  Q 297.79 344.48 288.65 355.63
  C 272.55 375.31 274.48 400.69 299.07 411.94
  C 325.10 423.86 349.32 400.59 362.87 381.44
  Q 363.10 381.11 362.70 381.13
  Q 342.42 382.06 335.75 382.75
  C 330.00 383.34 317.25 385.00 313.30 388.89
  C 309.22 392.91 317.21 394.75 317.91 397.75
  C 319.44 404.36 300.07 403.33 297.40 394.32
  Q 296.07 389.86 299.28 385.25
  C 306.76 374.51 318.23 370.92 330.85 370.36
  Q 349.17 369.54 367.43 368.19
  C 374.93 367.63 387.53 365.69 392.54 360.14
  C 396.66 355.58 395.91 350.73 395.20 344.76
  A 0.63 0.63 0.0 0 0 394.29 344.28
  C 379.60 351.80 360.03 352.27 347.35 340.17
  C 342.83 335.86 340.93 331.43 341.83 325.33
  Q 342.25 322.44 344.98 321.92
  A 1.23 1.22 57.0 0 1 345.95 322.13
  C 351.39 326.06 357.13 332.19 362.56 334.56
  C 374.13 339.60 391.24 333.72 399.29 324.60
  C 411.83 310.39 402.17 291.09 388.09 282.52
  Q 387.37 282.08 386.87 282.75
  Q 382.48 288.54 376.07 291.29
  C 371.90 293.07 369.15 288.44 370.04 285.03
  C 370.61 282.83 373.28 281.06 375.07 279.54
  C 383.07 272.74 384.25 261.03 375.52 254.01
  Q 375.16 253.72 374.70 253.74
  Q 360.34 254.41 346.02 253.64
  Q 334.35 253.01 326.56 259.01
  C 315.18 267.77 319.55 284.69 333.39 288.02
  Q 339.29 289.44 341.19 288.93
  Q 345.45 287.78 346.18 291.66
  A 1.67 1.65 59.3 0 1 345.85 293.00
  C 326.16 318.07 296.63 284.43 305.30 261.60
  C 309.64 250.15 323.28 242.62 334.83 240.55
  C 344.81 238.76 355.33 239.12 368.97 239.24
  C 385.68 239.38 407.95 226.00 399.35 206.21
  C 392.25 189.86 375.96 185.81 359.75 189.97
  C 339.59 195.14 298.87 208.49 290.84 178.68
  C 285.08 157.31 300.68 145.04 319.22 140.93
  Q 337.64 136.84 355.64 141.85
  Q 358.03 142.52 359.27 143.29
  C 363.73 146.05 362.68 153.05 356.75 152.77
  C 339.88 151.96 314.34 149.55 304.90 164.23
  C 296.90 176.67 308.81 185.87 320.77 184.09
  Q 335.02 181.96 359.48 175.71
  Q 366.24 173.98 377.62 174.73
  Q 378.15 174.76 378.30 174.26
  C 380.42 167.56 383.66 159.74 380.46 152.80
  C 372.82 136.26 346.34 123.91 328.77 125.21
  C 317.71 126.03 308.84 134.25 297.94 131.20
  A 0.67 0.67 0.0 0 1 297.47 130.41"
/>
<path stroke="#9d9d9e" vector-effect="non-scaling-stroke" d="
  M 124.92 251.70
  Q 118.14 249.93 112.29 246.05
  A 0.66 0.66 0.0 0 0 111.55 246.05
  C 101.96 252.51 98.12 264.07 99.35 275.25
  Q 99.84 279.70 103.07 282.86
  A 0.70 0.69 -47.8 0 0 104.08 282.81
  Q 110.44 275.34 119.69 272.17
  Q 120.18 272.01 120.11 271.50
  Q 118.64 260.69 125.02 251.97
  A 0.17 0.17 0.0 0 0 124.92 251.70"
/>
<path stroke="#9d9d9e" vector-effect="non-scaling-stroke" d="
  M 391.77 272.06
  Q 401.25 275.24 407.81 282.80
  Q 408.19 283.24 408.66 282.88
  C 413.75 278.86 413.04 270.53 412.07 264.78
  Q 410.24 253.88 401.25 246.49
  A 1.94 1.94 0.0 0 0 398.93 246.38
  Q 393.54 250.00 387.26 251.57
  A 0.42 0.41 -24.8 0 0 387.02 252.21
  Q 393.29 261.04 391.63 271.84
  Q 391.60 272.01 391.77 272.06"
/>
</g>
<path fill="#3a3a3c" d="
  M 247.58 0.00
  L 264.54 0.00
  C 341.95 3.04 414.01 40.12 460.08 101.41
  C 545.95 215.68 522.69 377.55 406.88 462.69
  C 285.40 551.99 111.51 515.77 35.06 385.44
  Q 2.51 329.93 0.00 264.41
  L 0.00 247.70
  C 4.94 112.04 112.35 5.25 247.58 0.00
  Z
  M 297.47 130.41
  C 300.73 116.38 324.86 110.84 336.96 111.47
  Q 337.53 111.50 337.23 111.01
  Q 326.88 93.95 306.05 97.30
  C 290.22 99.85 277.73 111.04 285.88 128.12
  C 287.82 132.21 284.36 135.06 280.59 132.44
  C 269.69 124.85 268.87 113.94 276.21 103.25
  Q 276.47 102.86 276.05 102.65
  C 265.83 97.35 244.56 93.03 237.37 104.97
  Q 237.11 105.40 237.34 105.84
  Q 245.62 121.68 231.91 131.89
  C 229.75 133.50 226.42 134.76 225.44 131.09
  Q 225.14 129.93 225.96 128.16
  C 234.80 109.09 219.07 98.51 202.53 96.85
  C 190.35 95.63 180.53 100.67 174.54 111.21
  A 0.20 0.20 0.0 0 0 174.73 111.51
  C 188.25 110.70 208.14 115.83 214.43 129.53
  A 1.24 1.24 0.0 0 1 213.62 131.25
  C 203.47 133.84 195.85 127.24 186.29 125.68
  C 169.89 122.99 154.87 130.24 142.05 139.80
  C 135.52 144.67 129.79 152.13 130.08 160.80
  C 130.22 164.78 132.27 169.93 133.47 174.25
  Q 133.60 174.71 134.09 174.68
  C 150.43 173.66 169.43 179.83 182.49 182.53
  C 188.81 183.84 197.79 185.48 203.28 182.09
  C 217.98 173.01 204.43 157.78 193.56 154.66
  C 181.60 151.24 166.99 152.17 154.07 152.52
  C 148.50 152.68 149.08 145.99 152.49 143.46
  Q 154.73 141.79 162.32 140.42
  C 185.23 136.29 229.94 143.41 221.23 178.03
  C 213.57 208.51 172.24 195.33 152.01 190.01
  C 141.54 187.25 129.77 187.75 121.20 194.63
  C 109.63 203.92 105.96 220.82 119.05 230.98
  C 136.77 244.73 159.00 236.47 179.41 241.16
  C 196.42 245.07 211.98 258.24 207.34 277.58
  C 204.11 291.08 190.87 306.05 175.57 300.43
  C 173.44 299.65 161.81 292.96 166.95 289.34
  Q 167.88 288.68 170.16 288.83
  C 195.16 290.43 199.91 260.34 176.45 254.99
  Q 169.51 253.41 165.50 253.65
  Q 151.37 254.50 137.22 253.68
  Q 136.73 253.65 136.35 253.95
  C 128.35 260.21 128.53 271.38 135.32 278.44
  C 137.17 280.37 140.93 282.09 141.73 284.89
  C 142.73 288.40 139.91 293.20 135.83 291.40
  Q 129.00 288.37 125.00 282.67
  A 0.97 0.96 -34.3 0 0 123.67 282.42
  C 112.43 289.90 102.81 304.07 108.19 317.57
  C 113.90 331.92 135.34 340.24 149.25 334.48
  C 154.37 332.36 159.62 326.84 164.55 323.05
  C 168.69 319.87 170.39 324.78 170.36 328.14
  C 170.31 334.70 165.47 340.41 159.98 343.74
  C 146.59 351.86 131.26 351.23 117.64 344.30
  Q 116.95 343.95 116.76 344.71
  C 111.92 364.46 131.10 367.27 145.25 368.32
  Q 161.08 369.49 176.93 370.06
  Q 188.35 370.48 196.99 373.24
  C 204.14 375.54 214.77 383.70 214.90 392.10
  C 215.07 404.01 190.46 404.63 194.24 396.78
  A 0.68 0.67 84.2 0 1 194.44 396.53
  L 198.82 393.15
  A 2.46 2.46 0.0 0 0 199.31 389.76
  C 193.55 381.83 158.68 381.66 149.03 380.93
  Q 148.64 380.90 148.87 381.23
  C 160.10 397.44 180.30 417.72 201.81 414.95
  C 218.82 412.75 236.12 397.63 233.69 379.08
  C 231.83 364.91 221.23 347.99 206.07 344.16
  C 199.38 342.47 190.44 343.45 182.84 342.95
  C 179.10 342.70 175.43 340.36 178.27 336.31
  C 190.45 318.94 214.77 330.44 226.62 340.95
  Q 227.00 341.29 227.49 341.15
  C 231.10 340.10 236.03 339.65 237.33 335.42
  C 240.94 323.65 233.71 306.11 222.08 301.17
  C 218.22 299.53 203.53 294.94 213.83 288.58
  C 223.57 282.56 233.65 277.45 237.06 265.52
  Q 239.18 258.08 238.70 248.99
  C 238.16 238.57 233.83 231.59 224.28 227.68
  Q 213.23 223.16 201.25 222.63
  Q 185.66 221.93 170.07 221.27
  C 162.31 220.94 152.79 219.68 145.62 215.39
  C 136.71 210.07 143.51 198.30 149.10 206.36
  A 1.73 1.69 83.9 0 0 149.79 206.93
  C 155.29 209.33 163.02 209.71 168.25 209.76
  Q 188.48 209.97 204.52 211.06
  C 210.47 211.46 218.17 207.29 221.97 202.89
  C 231.66 191.66 238.49 165.09 227.00 152.67
  C 225.10 150.62 213.00 144.45 217.40 141.00
  C 221.52 137.76 226.43 138.12 230.81 140.97
  C 242.74 148.72 245.30 163.49 243.95 177.24
  Q 241.68 200.40 224.65 214.76
  Q 224.24 215.10 224.76 215.26
  C 239.29 219.69 248.77 229.85 250.21 245.25
  C 251.81 262.24 247.70 281.53 234.35 293.12
  Q 233.97 293.45 234.36 293.78
  Q 246.05 303.90 250.32 318.86
  C 254.04 331.94 251.54 346.84 237.65 352.44
  Q 237.10 352.66 237.41 353.16
  C 246.28 367.67 249.30 386.38 241.59 401.91
  Q 241.31 402.47 241.64 403.01
  C 247.96 413.49 264.61 418.12 271.51 405.24
  Q 271.75 404.78 271.50 404.33
  C 262.40 388.04 264.92 368.61 274.48 353.13
  Q 274.77 352.66 274.26 352.45
  Q 262.98 347.85 260.80 337.00
  C 257.55 320.78 265.38 304.16 277.60 293.77
  A 0.51 0.51 0.0 0 0 277.59 292.98
  C 262.55 281.07 257.83 253.65 263.47 236.27
  C 266.93 225.61 276.85 218.22 287.30 215.26
  A 0.34 0.33 55.8 0 0 287.41 214.67
  C 272.67 203.44 266.30 184.26 267.72 166.20
  C 268.50 156.35 272.51 145.93 281.43 140.70
  Q 288.97 136.27 295.14 141.58
  A 1.22 1.20 -69.6 0 1 295.55 142.49
  C 295.50 145.63 290.81 148.11 288.51 149.71
  C 284.33 152.63 281.25 155.89 280.21 160.50
  C 276.28 177.82 282.04 204.12 301.65 210.29
  Q 304.63 211.22 308.95 210.95
  Q 325.95 209.87 345.44 209.68
  Q 352.84 209.61 360.55 207.59
  C 363.07 206.93 363.81 204.33 366.22 203.84
  Q 369.62 203.16 370.49 206.75
  C 373.47 219.11 346.67 221.14 339.35 221.49
  C 324.98 222.17 309.64 221.64 295.58 224.88
  C 274.40 229.76 270.98 243.23 274.23 262.75
  C 276.55 276.69 286.74 281.47 298.42 288.82
  C 301.86 290.99 302.91 295.47 298.27 297.29
  C 285.52 302.30 278.21 307.95 274.51 321.50
  Q 272.40 329.21 274.73 335.90
  C 276.09 339.79 281.15 340.09 284.41 341.23
  Q 284.90 341.39 285.28 341.05
  C 298.03 329.41 318.68 320.47 332.68 335.00
  C 334.56 336.95 335.61 341.74 332.00 342.55
  C 325.74 343.96 316.56 342.76 311.67 343.21
  Q 297.79 344.48 288.65 355.63
  C 272.55 375.31 274.48 400.69 299.07 411.94
  C 325.10 423.86 349.32 400.59 362.87 381.44
  Q 363.10 381.11 362.70 381.13
  Q 342.42 382.06 335.75 382.75
  C 330.00 383.34 317.25 385.00 313.30 388.89
  C 309.22 392.91 317.21 394.75 317.91 397.75
  C 319.44 404.36 300.07 403.33 297.40 394.32
  Q 296.07 389.86 299.28 385.25
  C 306.76 374.51 318.23 370.92 330.85 370.36
  Q 349.17 369.54 367.43 368.19
  C 374.93 367.63 387.53 365.69 392.54 360.14
  C 396.66 355.58 395.91 350.73 395.20 344.76
  A 0.63 0.63 0.0 0 0 394.29 344.28
  C 379.60 351.80 360.03 352.27 347.35 340.17
  C 342.83 335.86 340.93 331.43 341.83 325.33
  Q 342.25 322.44 344.98 321.92
  A 1.23 1.22 57.0 0 1 345.95 322.13
  C 351.39 326.06 357.13 332.19 362.56 334.56
  C 374.13 339.60 391.24 333.72 399.29 324.60
  C 411.83 310.39 402.17 291.09 388.09 282.52
  Q 387.37 282.08 386.87 282.75
  Q 382.48 288.54 376.07 291.29
  C 371.90 293.07 369.15 288.44 370.04 285.03
  C 370.61 282.83 373.28 281.06 375.07 279.54
  C 383.07 272.74 384.25 261.03 375.52 254.01
  Q 375.16 253.72 374.70 253.74
  Q 360.34 254.41 346.02 253.64
  Q 334.35 253.01 326.56 259.01
  C 315.18 267.77 319.55 284.69 333.39 288.02
  Q 339.29 289.44 341.19 288.93
  Q 345.45 287.78 346.18 291.66
  A 1.67 1.65 59.3 0 1 345.85 293.00
  C 326.16 318.07 296.63 284.43 305.30 261.60
  C 309.64 250.15 323.28 242.62 334.83 240.55
  C 344.81 238.76 355.33 239.12 368.97 239.24
  C 385.68 239.38 407.95 226.00 399.35 206.21
  C 392.25 189.86 375.96 185.81 359.75 189.97
  C 339.59 195.14 298.87 208.49 290.84 178.68
  C 285.08 157.31 300.68 145.04 319.22 140.93
  Q 337.64 136.84 355.64 141.85
  Q 358.03 142.52 359.27 143.29
  C 363.73 146.05 362.68 153.05 356.75 152.77
  C 339.88 151.96 314.34 149.55 304.90 164.23
  C 296.90 176.67 308.81 185.87 320.77 184.09
  Q 335.02 181.96 359.48 175.71
  Q 366.24 173.98 377.62 174.73
  Q 378.15 174.76 378.30 174.26
  C 380.42 167.56 383.66 159.74 380.46 152.80
  C 372.82 136.26 346.34 123.91 328.77 125.21
  C 317.71 126.03 308.84 134.25 297.94 131.20
  A 0.67 0.67 0.0 0 1 297.47 130.41
  Z
  M 124.92 251.70
  Q 118.14 249.93 112.29 246.05
  A 0.66 0.66 0.0 0 0 111.55 246.05
  C 101.96 252.51 98.12 264.07 99.35 275.25
  Q 99.84 279.70 103.07 282.86
  A 0.70 0.69 -47.8 0 0 104.08 282.81
  Q 110.44 275.34 119.69 272.17
  Q 120.18 272.01 120.11 271.50
  Q 118.64 260.69 125.02 251.97
  A 0.17 0.17 0.0 0 0 124.92 251.70
  Z
  M 391.77 272.06
  Q 401.25 275.24 407.81 282.80
  Q 408.19 283.24 408.66 282.88
  C 413.75 278.86 413.04 270.53 412.07 264.78
  Q 410.24 253.88 401.25 246.49
  A 1.94 1.94 0.0 0 0 398.93 246.38
  Q 393.54 250.00 387.26 251.57
  A 0.42 0.41 -24.8 0 0 387.02 252.21
  Q 393.29 261.04 391.63 271.84
  Q 391.60 272.01 391.77 272.06
  Z"
/>
<path fill="#ffffff" d="
  M 297.94 131.20
  C 308.84 134.25 317.71 126.03 328.77 125.21
  C 346.34 123.91 372.82 136.26 380.46 152.80
  C 383.66 159.74 380.42 167.56 378.30 174.26
  Q 378.15 174.76 377.62 174.73
  Q 366.24 173.98 359.48 175.71
  Q 335.02 181.96 320.77 184.09
  C 308.81 185.87 296.90 176.67 304.90 164.23
  C 314.34 149.55 339.88 151.96 356.75 152.77
  C 362.68 153.05 363.73 146.05 359.27 143.29
  Q 358.03 142.52 355.64 141.85
  Q 337.64 136.84 319.22 140.93
  C 300.68 145.04 285.08 157.31 290.84 178.68
  C 298.87 208.49 339.59 195.14 359.75 189.97
  C 375.96 185.81 392.25 189.86 399.35 206.21
  C 407.95 226.00 385.68 239.38 368.97 239.24
  C 355.33 239.12 344.81 238.76 334.83 240.55
  C 323.28 242.62 309.64 250.15 305.30 261.60
  C 296.63 284.43 326.16 318.07 345.85 293.00
  A 1.67 1.65 59.3 0 0 346.18 291.66
  Q 345.45 287.78 341.19 288.93
  Q 339.29 289.44 333.39 288.02
  C 319.55 284.69 315.18 267.77 326.56 259.01
  Q 334.35 253.01 346.02 253.64
  Q 360.34 254.41 374.70 253.74
  Q 375.16 253.72 375.52 254.01
  C 384.25 261.03 383.07 272.74 375.07 279.54
  C 373.28 281.06 370.61 282.83 370.04 285.03
  C 369.15 288.44 371.90 293.07 376.07 291.29
  Q 382.48 288.54 386.87 282.75
  Q 387.37 282.08 388.09 282.52
  C 402.17 291.09 411.83 310.39 399.29 324.60
  C 391.24 333.72 374.13 339.60 362.56 334.56
  C 357.13 332.19 351.39 326.06 345.95 322.13
  A 1.23 1.22 57.0 0 0 344.98 321.92
  Q 342.25 322.44 341.83 325.33
  C 340.93 331.43 342.83 335.86 347.35 340.17
  C 360.03 352.27 379.60 351.80 394.29 344.28
  A 0.63 0.63 0.0 0 1 395.20 344.76
  C 395.91 350.73 396.66 355.58 392.54 360.14
  C 387.53 365.69 374.93 367.63 367.43 368.19
  Q 349.17 369.54 330.85 370.36
  C 318.23 370.92 306.76 374.51 299.28 385.25
  Q 296.07 389.86 297.40 394.32
  C 300.07 403.33 319.44 404.36 317.91 397.75
  C 317.21 394.75 309.22 392.91 313.30 388.89
  C 317.25 385.00 330.00 383.34 335.75 382.75
  Q 342.42 382.06 362.70 381.13
  Q 363.10 381.11 362.87 381.44
  C 349.32 400.59 325.10 423.86 299.07 411.94
  C 274.48 400.69 272.55 375.31 288.65 355.63
  Q 297.79 344.48 311.67 343.21
  C 316.56 342.76 325.74 343.96 332.00 342.55
  C 335.61 341.74 334.56 336.95 332.68 335.00
  C 318.68 320.47 298.03 329.41 285.28 341.05
  Q 284.90 341.39 284.41 341.23
  C 281.15 340.09 276.09 339.79 274.73 335.90
  Q 272.40 329.21 274.51 321.50
  C 278.21 307.95 285.52 302.30 298.27 297.29
  C 302.91 295.47 301.86 290.99 298.42 288.82
  C 286.74 281.47 276.55 276.69 274.23 262.75
  C 270.98 243.23 274.40 229.76 295.58 224.88
  C 309.64 221.64 324.98 222.17 339.35 221.49
  C 346.67 221.14 373.47 219.11 370.49 206.75
  Q 369.62 203.16 366.22 203.84
  C 363.81 204.33 363.07 206.93 360.55 207.59
  Q 352.84 209.61 345.44 209.68
  Q 325.95 209.87 308.95 210.95
  Q 304.63 211.22 301.65 210.29
  C 282.04 204.12 276.28 177.82 280.21 160.50
  C 281.25 155.89 284.33 152.63 288.51 149.71
  C 290.81 148.11 295.50 145.63 295.55 142.49
  A 1.22 1.20 -69.6 0 0 295.14 141.58
  Q 288.97 136.27 281.43 140.70
  C 272.51 145.93 268.50 156.35 267.72 166.20
  C 266.30 184.26 272.67 203.44 287.41 214.67
  A 0.34 0.33 55.8 0 1 287.30 215.26
  C 276.85 218.22 266.93 225.61 263.47 236.27
  C 257.83 253.65 262.55 281.07 277.59 292.98
  A 0.51 0.51 0.0 0 1 277.60 293.77
  C 265.38 304.16 257.55 320.78 260.80 337.00
  Q 262.98 347.85 274.26 352.45
  Q 274.77 352.66 274.48 353.13
  C 264.92 368.61 262.40 388.04 271.50 404.33
  Q 271.75 404.78 271.51 405.24
  C 264.61 418.12 247.96 413.49 241.64 403.01
  Q 241.31 402.47 241.59 401.91
  C 249.30 386.38 246.28 367.67 237.41 353.16
  Q 237.10 352.66 237.65 352.44
  C 251.54 346.84 254.04 331.94 250.32 318.86
  Q 246.05 303.90 234.36 293.78
  Q 233.97 293.45 234.35 293.12
  C 247.70 281.53 251.81 262.24 250.21 245.25
  C 248.77 229.85 239.29 219.69 224.76 215.26
  Q 224.24 215.10 224.65 214.76
  Q 241.68 200.40 243.95 177.24
  C 245.30 163.49 242.74 148.72 230.81 140.97
  C 226.43 138.12 221.52 137.76 217.40 141.00
  C 213.00 144.45 225.10 150.62 227.00 152.67
  C 238.49 165.09 231.66 191.66 221.97 202.89
  C 218.17 207.29 210.47 211.46 204.52 211.06
  Q 188.48 209.97 168.25 209.76
  C 163.02 209.71 155.29 209.33 149.79 206.93
  A 1.73 1.69 83.9 0 1 149.10 206.36
  C 143.51 198.30 136.71 210.07 145.62 215.39
  C 152.79 219.68 162.31 220.94 170.07 221.27
  Q 185.66 221.93 201.25 222.63
  Q 213.23 223.16 224.28 227.68
  C 233.83 231.59 238.16 238.57 238.70 248.99
  Q 239.18 258.08 237.06 265.52
  C 233.65 277.45 223.57 282.56 213.83 288.58
  C 203.53 294.94 218.22 299.53 222.08 301.17
  C 233.71 306.11 240.94 323.65 237.33 335.42
  C 236.03 339.65 231.10 340.10 227.49 341.15
  Q 227.00 341.29 226.62 340.95
  C 214.77 330.44 190.45 318.94 178.27 336.31
  C 175.43 340.36 179.10 342.70 182.84 342.95
  C 190.44 343.45 199.38 342.47 206.07 344.16
  C 221.23 347.99 231.83 364.91 233.69 379.08
  C 236.12 397.63 218.82 412.75 201.81 414.95
  C 180.30 417.72 160.10 397.44 148.87 381.23
  Q 148.64 380.90 149.03 380.93
  C 158.68 381.66 193.55 381.83 199.31 389.76
  A 2.46 2.46 0.0 0 1 198.82 393.15
  L 194.44 396.53
  A 0.68 0.67 84.2 0 0 194.24 396.78
  C 190.46 404.63 215.07 404.01 214.90 392.10
  C 214.77 383.70 204.14 375.54 196.99 373.24
  Q 188.35 370.48 176.93 370.06
  Q 161.08 369.49 145.25 368.32
  C 131.10 367.27 111.92 364.46 116.76 344.71
  Q 116.95 343.95 117.64 344.30
  C 131.26 351.23 146.59 351.86 159.98 343.74
  C 165.47 340.41 170.31 334.70 170.36 328.14
  C 170.39 324.78 168.69 319.87 164.55 323.05
  C 159.62 326.84 154.37 332.36 149.25 334.48
  C 135.34 340.24 113.90 331.92 108.19 317.57
  C 102.81 304.07 112.43 289.90 123.67 282.42
  A 0.97 0.96 -34.3 0 1 125.00 282.67
  Q 129.00 288.37 135.83 291.40
  C 139.91 293.20 142.73 288.40 141.73 284.89
  C 140.93 282.09 137.17 280.37 135.32 278.44
  C 128.53 271.38 128.35 260.21 136.35 253.95
  Q 136.73 253.65 137.22 253.68
  Q 151.37 254.50 165.50 253.65
  Q 169.51 253.41 176.45 254.99
  C 199.91 260.34 195.16 290.43 170.16 288.83
  Q 167.88 288.68 166.95 289.34
  C 161.81 292.96 173.44 299.65 175.57 300.43
  C 190.87 306.05 204.11 291.08 207.34 277.58
  C 211.98 258.24 196.42 245.07 179.41 241.16
  C 159.00 236.47 136.77 244.73 119.05 230.98
  C 105.96 220.82 109.63 203.92 121.20 194.63
  C 129.77 187.75 141.54 187.25 152.01 190.01
  C 172.24 195.33 213.57 208.51 221.23 178.03
  C 229.94 143.41 185.23 136.29 162.32 140.42
  Q 154.73 141.79 152.49 143.46
  C 149.08 145.99 148.50 152.68 154.07 152.52
  C 166.99 152.17 181.60 151.24 193.56 154.66
  C 204.43 157.78 217.98 173.01 203.28 182.09
  C 197.79 185.48 188.81 183.84 182.49 182.53
  C 169.43 179.83 150.43 173.66 134.09 174.68
  Q 133.60 174.71 133.47 174.25
  C 132.27 169.93 130.22 164.78 130.08 160.80
  C 129.79 152.13 135.52 144.67 142.05 139.80
  C 154.87 130.24 169.89 122.99 186.29 125.68
  C 195.85 127.24 203.47 133.84 213.62 131.25
  A 1.24 1.24 0.0 0 0 214.43 129.53
  C 208.14 115.83 188.25 110.70 174.73 111.51
  A 0.20 0.20 0.0 0 1 174.54 111.21
  C 180.53 100.67 190.35 95.63 202.53 96.85
  C 219.07 98.51 234.80 109.09 225.96 128.16
  Q 225.14 129.93 225.44 131.09
  C 226.42 134.76 229.75 133.50 231.91 131.89
  Q 245.62 121.68 237.34 105.84
  Q 237.11 105.40 237.37 104.97
  C 244.56 93.03 265.83 97.35 276.05 102.65
  Q 276.47 102.86 276.21 103.25
  C 268.87 113.94 269.69 124.85 280.59 132.44
  C 284.36 135.06 287.82 132.21 285.88 128.12
  C 277.73 111.04 290.22 99.85 306.05 97.30
  Q 326.88 93.95 337.23 111.01
  Q 337.53 111.50 336.96 111.47
  C 324.86 110.84 300.73 116.38 297.47 130.41
  A 0.67 0.67 0.0 0 0 297.94 131.20
  Z"
/>
<path fill="#ffffff" d="
  M 124.92 251.70
  A 0.17 0.17 0.0 0 1 125.02 251.97
  Q 118.64 260.69 120.11 271.50
  Q 120.18 272.01 119.69 272.17
  Q 110.44 275.34 104.08 282.81
  A 0.70 0.69 -47.8 0 1 103.07 282.86
  Q 99.84 279.70 99.35 275.25
  C 98.12 264.07 101.96 252.51 111.55 246.05
  A 0.66 0.66 0.0 0 1 112.29 246.05
  Q 118.14 249.93 124.92 251.70
  Z"
/>
<path fill="#ffffff" d="
  M 391.77 272.06
  Q 391.60 272.01 391.63 271.84
  Q 393.29 261.04 387.02 252.21
  A 0.42 0.41 -24.8 0 1 387.26 251.57
  Q 393.54 250.00 398.93 246.38
  A 1.94 1.94 0.0 0 1 401.25 246.49
  Q 410.24 253.88 412.07 264.78
  C 413.04 270.53 413.75 278.86 408.66 282.88
  Q 408.19 283.24 407.81 282.80
  Q 401.25 275.24 391.77 272.06
  Z"
/>
</svg>
