<?xml version="1.0" encoding="UTF-8" standalone="no"?>
<!DOCTYPE svg PUBLIC "-//W3C//DTD SVG 1.1//EN" "http://www.w3.org/Graphics/SVG/1.1/DTD/svg11.dtd">
<svg version="1.1" xmlns="http://www.w3.org/2000/svg" xmlns:xlink="http://www.w3.org/1999/xlink" preserveAspectRatio="xMidYMid meet" viewBox="0 0 640 640" width="640" height="640"><defs><path d="M418.05 0C403.77 0 392.2 11.58 392.2 25.85C392.2 40.13 403.77 51.71 418.05 51.71C429.4 51.71 486.15 51.71 588.3 51.71C588.3 153.85 588.3 210.6 588.3 221.95C588.3 236.23 599.87 247.8 614.15 247.8C628.43 247.8 640 236.23 640 221.95C640 202.34 640 45.46 640 25.85C640 11.58 628.43 0 614.15 0C574.93 0 437.66 0 418.05 0Z" id="a7EpDa2co2"></path><path d="M51.71 588.3C51.71 486.15 51.71 429.4 51.71 418.05C51.71 403.77 40.13 392.2 25.85 392.2C11.58 392.2 0 403.77 0 418.05C0 437.66 0 594.54 0 614.15C0 628.43 11.58 640 25.85 640C45.46 640 202.34 640 221.95 640C236.23 640 247.8 628.43 247.8 614.15C247.81 599.87 236.23 588.3 221.95 588.3C199.25 588.3 142.5 588.3 51.71 588.3Z" id="iwk2HwvTS"></path><path d="M595.87 7.57C572.99 30.45 389.96 213.48 367.09 236.35C356.99 246.45 356.99 262.82 367.09 272.91C372.13 277.96 378.75 280.49 385.37 280.49C391.98 280.49 398.6 277.96 403.65 272.91C426.53 250.04 609.55 67.01 632.43 44.13C642.52 34.04 642.52 17.67 632.43 7.57C622.33 -2.52 605.96 -2.52 595.87 7.57Z" id="a26cP5Q9d"></path><path d="M236.35 367.09C213.48 389.96 30.45 572.99 7.57 595.87C-2.52 605.96 -2.52 622.33 7.57 632.43C12.62 637.48 19.24 640 25.85 640C32.47 640 39.08 637.48 44.13 632.43C67.01 609.55 250.04 426.52 272.91 403.65C283.01 393.55 283.01 377.18 272.91 367.09C262.82 356.99 246.45 356.99 236.35 367.09Z" id="bqOimy7oT"></path></defs><g><g><g><use xlink:href="#a7EpDa2co2" opacity="1" fill="#ffffff" fill-opacity="1"></use><g><use xlink:href="#a7EpDa2co2" opacity="1" fill-opacity="0" stroke="#000000" stroke-width="1" stroke-opacity="0"></use></g></g><g><use xlink:href="#iwk2HwvTS" opacity="1" fill="#ffffff" fill-opacity="1"></use><g><use xlink:href="#iwk2HwvTS" opacity="1" fill-opacity="0" stroke="#000000" stroke-width="1" stroke-opacity="0"></use></g></g><g><use xlink:href="#a26cP5Q9d" opacity="1" fill="#ffffff" fill-opacity="1"></use><g><use xlink:href="#a26cP5Q9d" opacity="1" fill-opacity="0" stroke="#000000" stroke-width="1" stroke-opacity="0"></use></g></g><g><use xlink:href="#bqOimy7oT" opacity="1" fill="#ffffff" fill-opacity="1"></use><g><use xlink:href="#bqOimy7oT" opacity="1" fill-opacity="0" stroke="#000000" stroke-width="1" stroke-opacity="0"></use></g></g></g></g></svg>