<?xml version="1.0" encoding="UTF-8" standalone="no"?>
<!DOCTYPE svg PUBLIC "-//W3C//DTD SVG 1.1//EN" "http://www.w3.org/Graphics/SVG/1.1/DTD/svg11.dtd">
<svg version="1.1" xmlns="http://www.w3.org/2000/svg" xmlns:xlink="http://www.w3.org/1999/xlink" preserveAspectRatio="xMidYMid meet" viewBox="0 0 640 640" width="640" height="640"><defs><path d="M574.72 0.24L577.59 0.53L580.43 0.93L583.22 1.44L585.98 2.07L588.7 2.79L591.37 3.62L594 4.56L596.58 5.59L599.1 6.71L601.58 7.93L603.99 9.25L606.35 10.65L608.65 12.14L610.89 13.72L613.07 15.37L615.17 17.11L617.21 18.93L619.18 20.82L621.07 22.79L622.89 24.83L624.63 26.93L626.28 29.11L627.86 31.35L629.35 33.65L630.75 36.01L632.07 38.42L633.29 40.9L634.41 43.43L635.44 46L636.38 48.63L637.21 51.3L637.93 54.02L638.56 56.78L639.07 59.57L639.47 62.41L639.76 65.28L639.94 68.18L640 71.11L640 568.89L639.94 571.82L639.76 574.72L639.47 577.59L639.07 580.43L638.56 583.22L637.93 585.98L637.21 588.7L636.38 591.37L635.44 594L634.41 596.58L633.29 599.1L632.07 601.58L630.75 603.99L629.35 606.35L627.86 608.65L626.28 610.89L624.63 613.07L622.89 615.17L621.07 617.21L619.18 619.18L617.21 621.07L615.17 622.89L613.07 624.63L610.89 626.28L608.66 627.86L606.35 629.35L603.99 630.75L601.58 632.07L599.1 633.29L596.58 634.41L594 635.44L591.37 636.38L588.7 637.21L585.98 637.93L583.23 638.56L580.43 639.07L577.59 639.47L574.72 639.76L571.82 639.94L568.89 640L71.11 640L68.18 639.94L65.28 639.76L62.41 639.47L59.57 639.07L56.78 638.56L54.02 637.93L51.3 637.21L48.63 636.38L46 635.44L43.43 634.41L40.9 633.29L38.42 632.07L36.01 630.75L33.65 629.35L31.35 627.86L29.11 626.28L26.93 624.63L24.83 622.89L22.79 621.07L20.82 619.18L18.93 617.21L17.11 615.17L15.37 613.07L13.72 610.89L12.14 608.66L10.65 606.35L9.25 603.99L7.93 601.58L6.71 599.1L5.59 596.58L4.56 594L3.62 591.37L2.79 588.7L2.07 585.98L1.44 583.23L0.93 580.43L0.53 577.59L0.24 574.72L0.06 571.82L0 568.89L0 71.11L0.06 68.18L0.24 65.28L0.53 62.41L0.93 59.57L1.44 56.78L2.07 54.02L2.79 51.3L3.62 48.63L4.56 46L5.59 43.43L6.71 40.9L7.93 38.42L9.25 36.01L10.65 33.65L12.14 31.35L13.72 29.11L15.37 26.93L17.11 24.83L18.93 22.79L20.82 20.82L22.79 18.93L24.83 17.11L26.93 15.37L29.11 13.72L31.35 12.14L33.65 10.65L36.01 9.25L38.42 7.93L40.9 6.71L43.43 5.59L46 4.56L48.63 3.62L51.3 2.79L54.02 2.07L56.78 1.44L59.57 0.93L62.41 0.53L65.28 0.24L68.18 0.06L71.11 0L568.89 0L571.82 0.06L574.72 0.24ZM71.11 568.89L568.89 568.89L568.89 71.11L71.11 71.11L71.11 568.89Z" id="b5fnLx6he5"></path><path d="M71.03 70.71L330.97 70.71L330.97 569.31L71.03 569.31L71.03 70.71Z" id="c1dniJxWf"></path></defs><g><g><g><use xlink:href="#b5fnLx6he5" opacity="1" fill="#000000" fill-opacity="1"></use><g><use xlink:href="#b5fnLx6he5" opacity="1" fill-opacity="0" stroke="#000000" stroke-width="1" stroke-opacity="0"></use></g></g><g><use xlink:href="#c1dniJxWf" opacity="1" fill="#3f3a3e" fill-opacity="1"></use><g><use xlink:href="#c1dniJxWf" opacity="1" fill-opacity="0" stroke="#d70f2d" stroke-width="0" stroke-opacity="1"></use></g></g></g></g></svg>