<?xml version="1.0" encoding="UTF-8" standalone="no"?>
<!DOCTYPE svg PUBLIC "-//W3C//DTD SVG 1.1//EN" "http://www.w3.org/Graphics/SVG/1.1/DTD/svg11.dtd">
<svg version="1.1" xmlns="http://www.w3.org/2000/svg" xmlns:xlink="http://www.w3.org/1999/xlink" preserveAspectRatio="xMidYMid meet" viewBox="0 0 640 640" width="640" height="640"><defs><path d="M58.54 359.51C44.26 359.51 32.68 371.09 32.68 385.37C32.68 399.64 44.26 411.22 58.54 411.22C69.89 411.22 126.63 411.22 228.78 411.22C228.78 513.37 228.78 570.12 228.78 581.47C228.78 595.74 240.36 607.32 254.63 607.32C268.91 607.32 280.49 595.74 280.49 581.47C280.49 561.86 280.49 404.98 280.49 385.37C280.49 371.09 268.91 359.51 254.63 359.51C215.41 359.51 78.15 359.51 58.54 359.51Z" id="i139dlUojD"></path><path d="M411.22 228.78C411.22 126.63 411.22 69.89 411.22 58.54C411.22 44.26 399.65 32.68 385.37 32.68C371.09 32.68 359.51 44.26 359.51 58.54C359.51 78.15 359.51 235.03 359.51 254.64C359.51 268.91 371.09 280.49 385.37 280.49C404.98 280.49 561.86 280.49 581.47 280.49C595.74 280.49 607.32 268.91 607.32 254.64C607.32 240.36 595.74 228.78 581.47 228.78C558.77 228.78 502.02 228.78 411.22 228.78Z" id="aKpLtIEf"></path><path d="M595.87 7.57C572.99 30.45 389.96 213.48 367.09 236.35C356.99 246.45 356.99 262.82 367.09 272.91C372.13 277.96 378.75 280.49 385.37 280.49C391.98 280.49 398.6 277.96 403.65 272.91C426.53 250.04 609.55 67.01 632.43 44.13C642.52 34.04 642.52 17.67 632.43 7.57C622.33 -2.52 605.96 -2.52 595.87 7.57Z" id="a2HXmMsQoy"></path><path d="M236.35 367.09C213.48 389.96 30.45 572.99 7.57 595.87C-2.52 605.96 -2.52 622.33 7.57 632.43C12.62 637.48 19.24 640 25.85 640C32.47 640 39.09 637.48 44.13 632.43C67.01 609.55 250.04 426.52 272.91 403.65C283.01 393.55 283.01 377.18 272.91 367.09C262.82 356.99 246.45 356.99 236.35 367.09Z" id="c8ZiuiWI4S"></path></defs><g><g><g><use xlink:href="#i139dlUojD" opacity="1" fill="#ffffff" fill-opacity="1"></use><g><use xlink:href="#i139dlUojD" opacity="1" fill-opacity="0" stroke="#000000" stroke-width="1" stroke-opacity="0"></use></g></g><g><use xlink:href="#aKpLtIEf" opacity="1" fill="#ffffff" fill-opacity="1"></use><g><use xlink:href="#aKpLtIEf" opacity="1" fill-opacity="0" stroke="#000000" stroke-width="1" stroke-opacity="0"></use></g></g><g><use xlink:href="#a2HXmMsQoy" opacity="1" fill="#ffffff" fill-opacity="1"></use><g><use xlink:href="#a2HXmMsQoy" opacity="1" fill-opacity="0" stroke="#000000" stroke-width="1" stroke-opacity="0"></use></g></g><g><use xlink:href="#c8ZiuiWI4S" opacity="1" fill="#ffffff" fill-opacity="1"></use><g><use xlink:href="#c8ZiuiWI4S" opacity="1" fill-opacity="0" stroke="#000000" stroke-width="1" stroke-opacity="0"></use></g></g></g></g></svg>