<?xml version="1.0" encoding="UTF-8" standalone="no"?>
<!DOCTYPE svg PUBLIC "-//W3C//DTD SVG 1.1//EN" "http://www.w3.org/Graphics/SVG/1.1/DTD/svg11.dtd">
<svg version="1.1" xmlns="http://www.w3.org/2000/svg" xmlns:xlink="http://www.w3.org/1999/xlink" preserveAspectRatio="xMidYMid meet" viewBox="0 0 640 640" width="640" height="640"><defs><path d="M485.94 32.25C481.41 36.78 445.21 72.98 440.68 77.51C392.12 27.53 327.24 0 257.97 0C243.32 0 228.54 1.28 214.06 3.8C115.48 20.93 35.61 94.73 10.58 191.82C9.74 195.08 10.46 198.54 12.51 201.2C14.58 203.87 17.75 205.42 21.12 205.42C28.05 205.42 83.51 205.42 90.44 205.42C95.01 205.42 99.1 202.57 100.67 198.28C120.96 142.8 171.38 100.47 229.1 90.44C238.61 88.79 248.29 87.95 257.88 87.95C303.75 87.95 346.59 106.32 378.53 139.66C373.94 144.26 337.17 181.02 332.57 185.62C329.46 188.73 328.53 193.41 330.21 197.48C331.9 201.55 335.86 204.2 340.26 204.2C355.6 204.2 478.3 204.2 493.64 204.2C499.65 204.2 504.53 199.32 504.53 193.31C504.53 177.98 504.53 55.28 504.53 39.94C504.53 35.54 501.87 31.58 497.81 29.89C493.73 28.2 489.05 29.13 485.94 32.25Z" id="bjaFfU0K8"></path><path d="M421.56 306.57C416.99 306.57 412.9 309.42 411.33 313.71C391.04 369.19 340.62 411.53 282.9 421.55C273.39 423.2 263.71 424.03 254.12 424.03C208.25 424.03 165.41 405.67 133.47 372.33C138.06 367.73 174.83 330.97 179.43 326.37C182.54 323.26 183.47 318.58 181.79 314.51C180.1 310.44 176.13 307.79 171.73 307.79C156.39 307.79 33.7 307.79 18.36 307.79C12.35 307.79 7.48 312.67 7.48 318.68C7.48 334.01 7.48 456.72 7.48 472.05C7.48 476.46 10.13 480.42 14.2 482.11C18.26 483.8 22.95 482.86 26.06 479.74C30.59 475.22 66.79 439.01 71.32 434.49C119.88 484.47 184.76 512 254.02 512C268.68 512 283.46 510.72 297.94 508.2C396.51 491.08 476.39 417.27 501.42 320.18C502.26 316.91 501.54 313.46 499.49 310.79C497.42 308.13 494.25 306.57 490.88 306.57C477.01 306.57 428.49 306.57 421.56 306.57Z" id="dhwBTEkLd"></path></defs><g><g><g><use xlink:href="#bjaFfU0K8" opacity="1" fill="#000000" fill-opacity="1"></use><g><use xlink:href="#bjaFfU0K8" opacity="1" fill-opacity="0" stroke="#000000" stroke-width="1" stroke-opacity="0"></use></g></g><g><use xlink:href="#dhwBTEkLd" opacity="1" fill="#000000" fill-opacity="1"></use><g><use xlink:href="#dhwBTEkLd" opacity="1" fill-opacity="0" stroke="#000000" stroke-width="1" stroke-opacity="0"></use></g></g></g></g></svg>